<svg width="24" height="24" viewBox="0 0 24 24" fill="none" xmlns="http://www.w3.org/2000/svg">
<rect width="24" height="24" rx="4" fill="#C51645"/>
<path d="M9.50098 5.33325H10.9332V5.93214H10.0999V6.53103H10.9332V7.12992H9.50098V5.33325ZM11.2193 5.33325H12.6521V5.85436H11.8188V5.95825H12.6521V7.15603H11.2193V6.60936H12.0526V6.50492H11.2193V5.33325ZM12.9387 5.33325H14.3704V5.85436H13.5371V5.95825H14.3704V7.15603H12.9387V6.60936H13.7721V6.50492H12.9387V5.33325Z" fill="white"/>
<path fill-rule="evenodd" clip-rule="evenodd" d="M11.995 18.6666L8.13722 17.5955L7 7.95386H17L15.8633 17.5944L11.995 18.6666ZM9.24833 12.3183L9.35444 13.5005H13.4528L13.3155 15.0338L11.9967 15.3905H11.9955L10.6789 15.035L10.5944 14.0922H9.40722L9.57277 15.9488L11.995 16.6211L14.4211 15.9488L14.7167 12.6355L14.7455 12.3183L14.9589 9.92441H9.03555L9.14333 11.1072H13.6633L13.5555 12.3183H9.24833V12.3183Z" fill="white"/>
</svg>
