<svg width="24" height="24" viewBox="0 0 24 24" fill="none" xmlns="http://www.w3.org/2000/svg">
<rect width="24" height="24" rx="4" fill="#C51645"/>
<path d="M4 15.8833H8.42877V14.5889H5.36775V12.5831H8.19001V11.2887H5.36775V9.4111H8.42877V8.11665H4V15.8833V15.8833ZM14.3446 13.7726C14.3446 12.2215 14.2469 11.8833 12.3039 11.3819C11.0556 11.0554 11.0339 11.032 11.0339 10.1458C11.0339 9.46942 11.1967 9.25945 12.1194 9.25945C12.749 9.25945 13.4545 9.35277 14.0516 9.49275L14.2036 8.25663C13.4871 8.08165 12.7273 8 12.0976 8C10.2632 8 9.66623 8.69978 9.66623 10.1108C9.66623 11.7552 9.90499 12.1166 11.6527 12.5365C12.9553 12.8396 12.977 12.9095 12.977 13.7726C12.977 14.5189 12.8141 14.7405 11.8263 14.7405C11.1099 14.7405 10.4586 14.6006 9.78567 14.3789L9.5468 15.5335C10.0244 15.7784 10.9797 16 11.8047 16C13.943 16 14.3446 15.2419 14.3446 13.7726V13.7726ZM16.863 10.8805C16.863 9.69094 17.3949 9.45764 18.6757 9.45764C18.9037 9.45764 19.3813 9.49275 19.6961 9.56274L19.783 8.37316C19.4572 8.29162 18.9363 8.2333 18.5346 8.2333C16.5591 8.2333 15.5387 8.8863 15.5387 10.9387V13.7726C15.5387 15.1137 15.9077 15.9999 17.7747 15.9999C19.4789 15.9999 20 15.0904 20 13.8776V13.3178C20 11.9767 19.4681 11.3935 18.1547 11.3935C17.6879 11.3935 17.2429 11.4635 16.863 11.6035V10.8805V10.8805ZM17.9484 12.6181C18.4261 12.6181 18.6757 12.7931 18.6757 13.3528V13.9242C18.6757 14.5189 18.4585 14.7755 17.7748 14.7755C17.0909 14.7755 16.863 14.5656 16.863 13.9242V12.863C17.1669 12.723 17.5577 12.6181 17.9484 12.6181Z" fill="white"/>
</svg>
