<svg width="24" height="24" viewBox="0 0 24 24" fill="none" xmlns="http://www.w3.org/2000/svg">
<rect width="24" height="24" rx="4" fill="#BFBFBF"/>
<rect x="5.54175" y="4.25" width="12.9167" height="13.75" rx="2.58333" fill="#282B30"/>
<path d="M18.8974 3.82512C18.3287 3.27479 17.6444 3 16.8438 3H7.1562C6.35556 3 5.67129 3.27479 5.10262 3.82512C4.53395 4.37544 4.25 5.03764 4.25 5.81245V15.1875C4.25 15.9624 4.53395 16.6246 5.10262 17.1749C5.67129 17.7252 6.35556 18 7.1562 18H9.41692C9.56433 18 9.67527 17.9947 9.74975 17.985C9.8364 17.9682 9.91461 17.9234 9.97163 17.8581C10.0453 17.783 10.0826 17.6742 10.0826 17.5315L10.0771 16.8671C10.074 16.4436 10.0725 16.1088 10.0725 15.861L9.83974 15.9C9.69234 15.9263 9.50614 15.9376 9.28038 15.9346C9.04507 15.9304 8.8105 15.9075 8.57905 15.8663C8.33265 15.8222 8.1007 15.7218 7.90254 15.5735C7.695 15.4215 7.54021 15.212 7.45877 14.9728L7.35791 14.7476C7.27291 14.5699 7.16611 14.4028 7.03983 14.2498C6.89553 14.0674 6.7489 13.9442 6.60072 13.8789L6.53089 13.8301C6.48221 13.7964 6.43792 13.757 6.39901 13.713C6.36184 13.6721 6.33124 13.6261 6.30824 13.5764C6.28806 13.5306 6.30513 13.493 6.35866 13.4637C6.41297 13.4337 6.50995 13.4194 6.65192 13.4194L6.85363 13.4495C6.98785 13.475 7.15465 13.5531 7.35248 13.683C7.55269 13.8151 7.71993 13.9887 7.84202 14.1913C7.99718 14.4578 8.18338 14.6612 8.40216 14.8016C8.62094 14.9413 8.84127 15.0119 9.06315 15.0119C9.28504 15.0119 9.47666 14.9953 9.63881 14.9631C9.79561 14.9317 9.94798 14.8823 10.0927 14.8159C10.1532 14.3804 10.3176 14.0441 10.5869 13.8098C10.238 13.7768 9.89231 13.718 9.55269 13.6342C9.22126 13.5461 8.90251 13.4182 8.60387 13.2535C8.29141 13.0889 8.01542 12.8664 7.79159 12.5988C7.57669 12.3383 7.39981 11.9967 7.26171 11.574C7.12439 11.1506 7.05535 10.6618 7.05535 10.1085C7.05535 9.32089 7.32067 8.65043 7.85211 8.09635C7.60385 7.50473 7.62712 6.84028 7.92271 6.10526C8.11821 6.04595 8.40759 6.09024 8.79084 6.23665C9.1741 6.38305 9.45494 6.50843 9.63338 6.61204C9.81181 6.71715 9.95456 6.805 10.0624 6.87632C10.6931 6.70646 11.3449 6.62107 11.9996 6.62255C12.666 6.62255 13.3115 6.70739 13.9376 6.87632L14.3208 6.64207C14.6156 6.47078 14.9266 6.32699 15.2495 6.21262C15.6064 6.08199 15.8779 6.0467 16.0672 6.10526C16.3698 6.84103 16.3962 7.50473 16.1471 8.0971C16.6785 8.65043 16.9447 9.32089 16.9447 10.1092C16.9447 10.6625 16.8756 11.1528 16.7375 11.5785C16.6002 12.005 16.4218 12.3466 16.203 12.6041C15.9752 12.8683 15.6981 13.0886 15.386 13.2535C15.0602 13.4292 14.7437 13.5561 14.4372 13.6342C14.0976 13.7183 13.7519 13.7773 13.4031 13.8106C13.7522 14.1034 13.9275 14.5651 13.9275 15.1966V17.5315C13.9275 17.6419 13.9438 17.7312 13.9779 17.7995C13.9936 17.8325 14.016 17.862 14.0437 17.8864C14.0714 17.9107 14.104 17.9295 14.1393 17.9414C14.2138 17.967 14.279 17.9835 14.3364 17.9895C14.3938 17.997 14.476 17.9992 14.5831 17.9992H16.8438C17.6444 17.9992 18.3287 17.7245 18.8974 17.1741C19.4653 16.6246 19.75 15.9616 19.75 15.1868V5.81245C19.75 5.03764 19.4661 4.37544 18.8974 3.82512Z" fill="#BFBFBF"/>
</svg>
