<svg width="24" height="24" viewBox="0 0 24 24" fill="none" xmlns="http://www.w3.org/2000/svg">
<rect width="24" height="24" rx="4" fill="#BFBFBF"/>
<path d="M18.4 16.5H16.8V9.9375L12 12.75L7.2 9.9375V16.5H5.6V7.5H6.56L12 10.6875L17.44 7.5H18.4M18.4 6H5.6C4.712 6 4 6.6675 4 7.5V16.5C4 16.8978 4.16857 17.2794 4.46863 17.5607C4.76869 17.842 5.17565 18 5.6 18H18.4C18.8243 18 19.2313 17.842 19.5314 17.5607C19.8314 17.2794 20 16.8978 20 16.5V7.5C20 7.10218 19.8314 6.72064 19.5314 6.43934C19.2313 6.15804 18.8243 6 18.4 6Z" fill="#282B30"/>
</svg>
