<svg width="24" height="24" viewBox="0 0 24 24" fill="none" xmlns="http://www.w3.org/2000/svg">
<path d="M14.394 15.2565C14.6525 15.7968 15.0536 16.251 15.5512 16.5668C16.0488 16.8826 16.6228 17.0472 17.2071 17.0418C18.3886 17.0418 19.1436 16.4327 19.1436 15.5916C19.1436 14.5838 18.3678 14.2264 17.0679 13.6396L16.3546 13.3243C14.2973 12.4205 12.9299 11.2882 12.9299 8.89467C12.9299 6.68928 14.5598 5.0114 17.1062 5.0114C17.9327 4.94957 18.7585 5.1403 19.4804 5.55975C20.2023 5.9792 20.7883 6.60876 21.1651 7.36971L18.9444 8.83968C18.799 8.46261 18.5458 8.14008 18.2183 7.91496C17.8909 7.68983 17.5048 7.57278 17.1112 7.57934C16.9397 7.56154 16.7665 7.5808 16.6026 7.63587C16.4387 7.69095 16.2877 7.78064 16.1593 7.89922C16.0309 8.0178 15.9278 8.16267 15.8567 8.3246C15.7856 8.48652 15.748 8.66195 15.7464 8.83968C15.7464 9.72201 16.2763 10.0785 17.4962 10.625L18.2095 10.9394C20.6326 12.0107 22 13.1027 22 15.5581C22 18.2051 19.9835 19.6553 17.2746 19.6553C16.2194 19.7245 15.1673 19.4774 14.2453 18.9438C13.3233 18.4103 12.5707 17.613 12.0783 16.6483L14.394 15.2565ZM4.32147 15.5143C4.76977 16.3339 5.17723 17.0263 6.15465 17.0263C7.09124 17.0263 7.68286 16.6483 7.68286 15.1792V5.18322H10.5343V15.2204C10.5343 18.2643 8.80277 19.6501 6.27631 19.6501C5.38388 19.6999 4.49772 19.47 3.73444 18.9907C2.97115 18.5113 2.36649 17.8049 2 16.9645L4.32147 15.5143Z" fill="#C51645"/>
</svg>
