<svg width="24" height="24" viewBox="0 0 24 24" fill="none" xmlns="http://www.w3.org/2000/svg">
<rect width="24" height="24" rx="4" fill="#C51645"/>
<path d="M8.04004 6H8.58104V6.5345H9.07604V6H9.61704V7.618H9.07604V7.0765H8.58104V7.618H8.04054V6H8.04004ZM10.328 6.5365H9.85204V6H11.3455V6.5365H10.869V7.618H10.328V6.5365V6.5365ZM11.5825 6H12.1465L12.4935 6.5685L12.84 6H13.404V7.618H12.8655V6.816L12.4935 7.3915H12.484L12.1115 6.8165V7.618H11.5825V6V6ZM13.673 6H14.2145V7.0835H14.9745V7.6185H13.673V6V6Z" fill="white"/>
<path fill-rule="evenodd" clip-rule="evenodd" d="M8.023 17.0359L7 8.3584H16L14.9765 17.0349L11.495 17.9999L8.023 17.0359ZM10.0915 12.2859L9.9945 11.1959H14.067L14.162 10.1319H8.832L9.119 13.3504H12.8075L12.684 14.7304L11.497 15.0514H11.496L10.311 14.7314L10.235 13.8829H9.166L9.315 15.5539L11.495 16.1589L13.6785 15.5539L13.9445 12.5719L13.9705 12.2864H10.0915V12.2859Z" fill="white"/>
</svg>
