<svg width="24" height="24" viewBox="0 0 24 24" fill="none" xmlns="http://www.w3.org/2000/svg">
<rect width="24" height="24" rx="4" fill="#C51645"/>
<path d="M13.2955 14.6924C13.4894 15.0976 13.7902 15.4382 14.1634 15.6751C14.5366 15.9119 14.9671 16.0354 15.4053 16.0313C16.2915 16.0313 16.8577 15.5745 16.8577 14.9437C16.8577 14.1879 16.2759 13.9198 15.3009 13.4797L14.766 13.2433C13.223 12.5654 12.1974 11.7162 12.1974 9.921C12.1974 8.26696 13.4198 7.00855 15.3297 7.00855C15.9495 6.96217 16.5689 7.10522 17.1103 7.41981C17.6518 7.7344 18.0912 8.20657 18.3738 8.77728L16.7083 9.87976C16.5993 9.59696 16.4093 9.35506 16.1637 9.18622C15.9182 9.01737 15.6286 8.92958 15.3334 8.9345C15.2048 8.92116 15.0749 8.9356 14.9519 8.9769C14.829 9.01821 14.7158 9.08548 14.6195 9.17441C14.5231 9.26335 14.4459 9.37201 14.3925 9.49345C14.3392 9.61489 14.311 9.74646 14.3098 9.87976C14.3098 10.5415 14.7072 10.8089 15.6222 11.2187L16.1571 11.4545C17.9745 12.258 19 13.077 19 14.9186C19 16.9038 17.4876 17.9915 15.4559 17.9915C14.6645 18.0434 13.8755 17.858 13.184 17.4579C12.4924 17.0577 11.928 16.4598 11.5587 15.7362L13.2955 14.6924ZM5.7411 14.8857C6.07733 15.5004 6.38293 16.0198 7.11599 16.0198C7.81843 16.0198 8.26214 15.7362 8.26214 14.6344V7.13742H10.4007V14.6653C10.4007 16.9483 9.10207 17.9876 7.20723 17.9876C6.53791 18.0249 5.87329 17.8525 5.30083 17.493C4.72836 17.1335 4.27486 16.6037 4 15.9734L5.7411 14.8857Z" fill="white"/>
</svg>
