<svg width="24" height="24" viewBox="0 0 24 24" fill="none" xmlns="http://www.w3.org/2000/svg">
<rect width="24" height="24" rx="4" fill="#BFBFBF"/>
<rect x="5" y="5" width="14" height="14" rx="4" fill="#282B30"/>
<path fill-rule="evenodd" clip-rule="evenodd" d="M4 5.33673C4 4.98221 4.14083 4.64221 4.39152 4.39152C4.6422 4.14084 4.98221 4 5.33673 4H18.6618C18.8375 3.99971 19.0115 4.03408 19.1739 4.10114C19.3363 4.1682 19.4839 4.26663 19.6082 4.39079C19.7325 4.51496 19.8311 4.66242 19.8983 4.82474C19.9655 4.98705 20.0001 5.16104 20 5.33673V18.6618C20.0002 18.8375 19.9657 19.0116 19.8986 19.174C19.8315 19.3364 19.733 19.4839 19.6087 19.6082C19.4845 19.7325 19.337 19.8311 19.1746 19.8983C19.0123 19.9655 18.8383 20.0001 18.6625 20H5.33673C5.16112 20 4.98724 19.9654 4.82502 19.8982C4.66279 19.831 4.5154 19.7324 4.39126 19.6082C4.26713 19.484 4.16868 19.3366 4.10154 19.1743C4.03441 19.012 3.9999 18.8381 4 18.6625V5.33673ZM10.3331 10.1004H12.4996V11.1884C12.8124 10.5629 13.6124 10 14.8145 10C17.1193 10 17.6655 11.2458 17.6655 13.5316V17.7658H15.3331V14.0524C15.3331 12.7505 15.0204 12.016 14.2262 12.016C13.1244 12.016 12.6662 12.808 12.6662 14.0524V17.7658H10.3331V10.1004ZM6.33309 17.6662H8.66618V10H6.33309V17.6655V17.6662ZM9 7.49964C9.0044 7.6994 8.96885 7.89803 8.89545 8.08387C8.82204 8.2697 8.71226 8.43901 8.57253 8.58184C8.43281 8.72468 8.26596 8.83816 8.08179 8.91564C7.89761 8.99312 7.69981 9.03303 7.5 9.03303C7.30019 9.03303 7.10239 8.99312 6.91821 8.91564C6.73404 8.83816 6.56719 8.72468 6.42747 8.58184C6.28774 8.43901 6.17796 8.2697 6.10455 8.08387C6.03115 7.89803 5.9956 7.6994 6 7.49964C6.00863 7.10753 6.17046 6.7344 6.45083 6.46014C6.73119 6.18588 7.1078 6.03231 7.5 6.03231C7.8922 6.03231 8.26881 6.18588 8.54917 6.46014C8.82954 6.7344 8.99137 7.10753 9 7.49964V7.49964Z" fill="#BFBFBF"/>
</svg>
