<svg width="24" height="24" viewBox="0 0 24 24" fill="none" xmlns="http://www.w3.org/2000/svg">
<rect width="24" height="24" rx="4" fill="#C51645"/>
<path d="M18.7208 11.8919C18.7208 10.9829 17.5825 10.1213 15.8371 9.58738C16.2402 7.80882 16.0612 6.3933 15.2723 5.93994C15.0811 5.83287 14.8648 5.77898 14.6457 5.78386V6.40702C14.7743 6.40702 14.8778 6.43274 14.9647 6.48019C15.3449 6.69858 15.5101 7.52869 15.3815 8.59719C15.3506 8.86018 15.3003 9.13688 15.2386 9.4193C14.6541 9.27845 14.0609 9.17665 13.4629 9.11458C13.1066 8.62309 12.7179 8.15592 12.2995 7.71621C13.2113 6.86895 14.0671 6.40473 14.6491 6.40473V5.78101C13.8796 5.78101 12.8729 6.32927 11.8547 7.28C10.837 6.33555 9.82971 5.79244 9.06078 5.79244V6.41559C9.63991 6.41559 10.4986 6.87752 11.4105 7.71906C11.0188 8.13069 10.6272 8.59719 10.2551 9.11458C9.65582 9.17597 9.06155 9.27874 8.4765 9.42216C8.41467 9.15448 8.36602 8.88393 8.33072 8.61149C8.19923 7.54241 8.36159 6.7123 8.73948 6.49163C8.82295 6.44132 8.93214 6.41845 9.06078 6.41845V5.7953C8.82638 5.7953 8.61314 5.84561 8.42905 5.95137C7.64296 6.40473 7.46688 7.81683 7.87222 9.59024C6.13254 10.1276 5 10.9858 5 11.8919C5 12.8009 6.13825 13.6624 7.88365 14.1958C7.4806 15.975 7.65954 17.3905 8.44849 17.8433C8.63029 17.9496 8.84296 17.9999 9.07736 17.9999C9.84686 17.9999 10.8536 17.4517 11.8718 16.5009C12.8894 17.4459 13.8962 17.9885 14.6657 17.9885C14.8864 17.9932 15.1045 17.9391 15.2974 17.8318C16.0835 17.3791 16.2596 15.967 15.8543 14.1936C17.5882 13.6596 18.7208 12.798 18.7208 11.8919ZM15.0791 10.0264C14.9704 10.4003 14.8445 10.7688 14.7017 11.131C14.468 10.6763 14.2114 10.2338 13.9328 9.80519C14.3301 9.86408 14.7126 9.93668 15.0791 10.0264ZM13.7984 13.005C13.589 13.3706 13.3642 13.7271 13.1244 14.0735C12.2853 14.1475 11.4414 14.1484 10.6021 14.0764C10.1207 13.3887 9.69967 12.6607 9.34377 11.9005C9.69913 11.1385 10.1183 10.4079 10.5969 9.71658C11.4358 9.64247 12.2796 9.64132 13.1187 9.71315C13.3508 10.0459 13.5778 10.4015 13.7956 10.7765C14.0083 11.1424 14.2015 11.514 14.3776 11.889C14.1995 12.2686 14.0063 12.6409 13.7984 13.005ZM14.7017 12.6414C14.8527 13.0159 14.9819 13.3909 15.0876 13.7545C14.7217 13.8442 14.3353 13.9197 13.9357 13.978C14.2131 13.5455 14.4687 13.0994 14.7017 12.6414ZM11.8661 15.6257C11.606 15.357 11.3459 15.058 11.0886 14.7304C11.3401 14.7418 11.5974 14.7504 11.8575 14.7504C12.1205 14.7504 12.3806 14.7447 12.635 14.7304C12.3835 15.058 12.1234 15.357 11.8661 15.6257ZM9.78512 13.978C9.39965 13.9222 9.01696 13.8485 8.63829 13.7573C8.74177 13.3966 8.8704 13.0244 9.01561 12.6528C9.13052 12.8758 9.25115 13.0999 9.38264 13.324C9.51413 13.5475 9.64791 13.7659 9.78512 13.978ZM11.8518 8.15813C12.1119 8.42683 12.3721 8.72583 12.6293 9.05341C12.3778 9.04198 12.1205 9.0334 11.8604 9.0334C11.5974 9.0334 11.3373 9.03912 11.0829 9.05341C11.3344 8.72583 11.5945 8.42683 11.8518 8.15813ZM9.78226 9.80577C9.50491 10.2374 9.24924 10.6825 9.01618 11.1395C8.86938 10.7751 8.74059 10.4036 8.63029 10.0264C8.99617 9.93954 9.38264 9.86408 9.78226 9.80577ZM7.25135 13.3068C6.26117 12.8849 5.62086 12.331 5.62086 11.8919C5.62086 11.4528 6.26117 10.896 7.25135 10.4769C7.49146 10.3735 7.75445 10.2808 8.026 10.1945C8.18551 10.7422 8.39532 11.3128 8.65487 11.8976C8.40982 12.4477 8.20258 13.0138 8.03458 13.5921C7.769 13.5099 7.50761 13.4147 7.25135 13.3068ZM8.75606 17.303C8.37588 17.0858 8.21066 16.2545 8.33929 15.1866C8.37016 14.9236 8.42047 14.6463 8.48222 14.3639C9.02991 14.4983 9.62847 14.6017 10.2579 14.6692C10.6142 15.1607 11.0028 15.6279 11.4213 16.0676C10.5095 16.9148 9.65363 17.3791 9.07164 17.3791C8.96184 17.3803 8.85344 17.3538 8.75606 17.303ZM15.3901 15.1723C15.5215 16.2408 15.3592 17.0715 14.9813 17.2922C14.8978 17.3425 14.7886 17.3648 14.66 17.3648C14.0809 17.3648 13.2222 16.9034 12.3103 16.0613C12.727 15.6234 13.1131 15.1573 13.4657 14.6663C14.065 14.605 14.6592 14.5022 15.2443 14.3588C15.3089 14.6412 15.3586 14.9122 15.3901 15.1723ZM16.4666 13.3068C16.2264 13.4103 15.9635 13.5029 15.6919 13.5893C15.521 13.008 15.3109 12.439 15.063 11.8862C15.3203 11.3048 15.5267 10.7371 15.6833 10.1917C15.9498 10.2742 16.2121 10.3694 16.4694 10.4769C17.4596 10.8989 18.0999 11.4528 18.0999 11.8919C18.097 12.331 17.4567 12.8878 16.4666 13.3068Z" fill="white"/>
<path d="M11.8574 13.1702C12.1965 13.1702 12.5216 13.0355 12.7613 12.7958C13.0011 12.556 13.1357 12.2309 13.1357 11.8918C13.1357 11.5528 13.0011 11.2277 12.7613 10.9879C12.5216 10.7482 12.1965 10.6135 11.8574 10.6135C11.5184 10.6135 11.1932 10.7482 10.9535 10.9879C10.7138 11.2277 10.5791 11.5528 10.5791 11.8918C10.5791 12.2309 10.7138 12.556 10.9535 12.7958C11.1932 13.0355 11.5184 13.1702 11.8574 13.1702V13.1702Z" fill="white"/>
</svg>
