<svg width="24" height="24" viewBox="0 0 24 24" fill="none" xmlns="http://www.w3.org/2000/svg">
<rect width="24" height="24" rx="4" fill="#C51645"/>
<path d="M10 14.3077C10 14.4301 9.95137 14.5475 9.86482 14.6341C9.77826 14.7206 9.66087 14.7692 9.53846 14.7692H8.96154V17.0769C8.96154 17.1993 8.91291 17.3167 8.82636 17.4033C8.7398 17.4898 8.62241 17.5385 8.5 17.5385C8.37759 17.5385 8.2602 17.4898 8.17364 17.4033C8.08709 17.3167 8.03846 17.1993 8.03846 17.0769V14.7692H7.46154C7.33913 14.7692 7.22174 14.7206 7.13518 14.6341C7.04863 14.5475 7 14.4301 7 14.3077C7 14.1853 7.04863 14.0679 7.13518 13.9813C7.22174 13.8948 7.33913 13.8462 7.46154 13.8462H9.53846C9.66087 13.8462 9.77826 13.8948 9.86482 13.9813C9.95137 14.0679 10 14.1853 10 14.3077ZM17.1538 9.70385V17.0769C17.1538 17.3217 17.0566 17.5565 16.8835 17.7296C16.7104 17.9027 16.4756 18 16.2308 18H15.3077C15.1853 18 15.0679 17.9514 14.9813 17.8648C14.8948 17.7783 14.8461 17.6609 14.8461 17.5385C14.8461 17.4161 14.8948 17.2987 14.9813 17.2121C15.0679 17.1255 15.1853 17.0769 15.3077 17.0769H16.2308V10.1539H13.4615C13.3391 10.1539 13.2217 10.1052 13.1352 10.0187C13.0486 9.93211 13 9.81472 13 9.69231V6.92308H7.92308V12C7.92308 12.1224 7.87445 12.2398 7.78789 12.3264C7.70134 12.4129 7.58395 12.4615 7.46154 12.4615C7.33913 12.4615 7.22174 12.4129 7.13518 12.3264C7.04863 12.2398 7 12.1224 7 12V6.92308C7 6.67827 7.09725 6.44348 7.27036 6.27037C7.44347 6.09726 7.67826 6.00001 7.92308 6.00001H13.4615C13.5843 5.99932 13.7025 6.04698 13.7904 6.1327L17.0154 9.36347C17.0597 9.40594 17.0948 9.45703 17.1186 9.51358C17.1424 9.57013 17.1544 9.63096 17.1538 9.69231V9.70385ZM13.9231 9.23077H15.5788L13.9231 7.57501V9.23077ZM12.175 15.2192C11.9962 15.1731 11.6788 15.0865 11.6154 15.0115V15C11.6154 14.8096 11.7538 14.7115 12.0192 14.7115C12.2254 14.7157 12.4259 14.7799 12.5962 14.8962H12.5904C12.6741 14.9627 12.7777 14.9992 12.8846 15C13.007 15 13.1244 14.9514 13.211 14.8648C13.2975 14.7783 13.3462 14.6609 13.3462 14.5385C13.3473 14.4709 13.3328 14.4039 13.3037 14.3429C13.2747 14.2818 13.232 14.2283 13.1788 14.1865C12.846 13.9311 12.4388 13.7914 12.0192 13.7885C11.2404 13.7885 10.6923 14.2846 10.6923 15C10.6923 15.7154 11.4423 15.9808 11.9385 16.1135C12.1346 16.1654 12.3423 16.2173 12.4692 16.2923C12.5962 16.3673 12.5385 16.35 12.5385 16.3846C12.5385 16.4192 12.5385 16.6731 12.0192 16.6731C11.8131 16.6689 11.6126 16.6047 11.4423 16.4885H11.4481C11.3643 16.422 11.2608 16.3854 11.1538 16.3846C11.0314 16.3846 10.914 16.4332 10.8275 16.5198C10.7409 16.6064 10.6923 16.7237 10.6923 16.8462C10.6912 16.9137 10.7057 16.9807 10.7347 17.0417C10.7637 17.1028 10.8065 17.1563 10.8596 17.1981C11.1925 17.4535 11.5997 17.5933 12.0192 17.5962C12.9192 17.5962 13.4615 17.1404 13.4615 16.3846C13.4615 15.6288 12.6538 15.3462 12.175 15.2192Z" fill="white"/>
</svg>
