<svg width="32" height="32" viewBox="0 0 32 32" fill="none" xmlns="http://www.w3.org/2000/svg">
<path fill-rule="evenodd" clip-rule="evenodd" d="M17.4329 9.14679L16 0L14.5671 9.14679C14.3106 9.20014 14.0593 9.26751 13.814 9.34808L8 2.14359L11.333 10.7828C11.1396 10.9559 10.9559 11.1396 10.7828 11.333L2.14359 8L9.34808 13.814C9.26751 14.0593 9.20014 14.3106 9.14679 14.5671L0 16L9.14679 17.4329C9.20014 17.6894 9.26751 17.9407 9.34808 18.186L2.14359 24L10.7828 20.667C10.9559 20.8604 11.1396 21.0441 11.333 21.2172L8 29.8564L13.814 22.6519C14.0593 22.7325 14.3106 22.7999 14.5671 22.8532L16 32L17.4329 22.8532C17.6894 22.7999 17.9407 22.7325 18.186 22.6519L24 29.8564L20.667 21.2172C20.8604 21.0441 21.0441 20.8604 21.2172 20.667L29.8564 24L22.6519 18.186C22.7325 17.9407 22.7999 17.6894 22.8532 17.4329L32 16L22.8532 14.5671C22.7999 14.3106 22.7325 14.0593 22.6519 13.814L29.8564 8L21.2172 11.333C21.0441 11.1396 20.8604 10.9559 20.667 10.7828L24 2.14359L18.186 9.34808C17.9407 9.26751 17.6894 9.20014 17.4329 9.14679Z" fill="#18B7D4"/>
</svg>
