<svg width="32" height="32" viewBox="0 0 32 32" fill="none" xmlns="http://www.w3.org/2000/svg">
<path d="M15.8049 0.863649C15.8519 0.655738 16.1481 0.655738 16.1951 0.863649L18.2764 10.0775C18.3068 10.2122 18.4614 10.2763 18.5782 10.2025L26.5651 5.15904C26.7453 5.04523 26.9548 5.25471 26.841 5.43493L21.7975 13.4218C21.7237 13.5386 21.7878 13.6932 21.9225 13.7236L31.1364 15.8049C31.3443 15.8519 31.3443 16.1481 31.1364 16.1951L21.9225 18.2764C21.7878 18.3068 21.7237 18.4614 21.7975 18.5782L26.841 26.5651C26.9548 26.7453 26.7453 26.9548 26.5651 26.841L18.5782 21.7975C18.4614 21.7237 18.3068 21.7878 18.2764 21.9225L16.1951 31.1364C16.1481 31.3443 15.8519 31.3443 15.8049 31.1364L13.7236 21.9225C13.6932 21.7878 13.5386 21.7237 13.4218 21.7975L5.43493 26.841C5.2547 26.9548 5.04523 26.7453 5.15904 26.5651L10.2025 18.5782C10.2763 18.4614 10.2122 18.3068 10.0775 18.2764L0.863649 16.1951C0.655738 16.1481 0.655738 15.8519 0.863649 15.8049L10.0775 13.7236C10.2122 13.6932 10.2763 13.5386 10.2025 13.4218L5.15904 5.43493C5.04523 5.25471 5.25471 5.04523 5.43493 5.15904L13.4218 10.2025C13.5386 10.2763 13.6932 10.2122 13.7236 10.0775L15.8049 0.863649Z" fill="#18B7D4"/>
<circle cx="16" cy="16" r="7" fill="#18B7D4" stroke="#282828" stroke-width="2"/>
</svg>
